<mxfile host="Electron" modified="2023-11-12T17:10:09.021Z" agent="Mozilla/5.0 (Windows NT 10.0; Win64; x64) AppleWebKit/537.36 (KHTML, like Gecko) draw.io/22.0.2 Chrome/114.0.5735.289 Electron/25.8.4 Safari/537.36" etag="P6gA9FGVBmXq9S3S4N_C" version="22.0.2" type="device" pages="2">
  <diagram name="BlackStone" id="JD1gxj-vs8g3eRGeA6m5">
    <mxGraphModel dx="2046" dy="1168" grid="1" gridSize="10" guides="1" tooltips="1" connect="1" arrows="1" fold="1" page="1" pageScale="1" pageWidth="850" pageHeight="1100" math="0" shadow="0">
      <root>
        <mxCell id="0" />
        <mxCell id="1" parent="0" />
        <mxCell id="_HqyLRQ5e8_8-m_bWvCM-1" value="" style="ellipse;whiteSpace=wrap;html=1;aspect=fixed;gradientColor=none;gradientDirection=radial;fillColor=#331A00;" vertex="1" parent="1">
          <mxGeometry x="320" y="480" width="80" height="80" as="geometry" />
        </mxCell>
      </root>
    </mxGraphModel>
  </diagram>
  <diagram name="WhiteStone" id="vMNu_J95Fe0BNFzg7IQn">
    <mxGraphModel dx="2046" dy="1168" grid="1" gridSize="10" guides="1" tooltips="1" connect="1" arrows="1" fold="1" page="1" pageScale="1" pageWidth="850" pageHeight="1100" math="0" shadow="0">
      <root>
        <mxCell id="2QjYasxwJIHFQyAoMR9X-0" />
        <mxCell id="2QjYasxwJIHFQyAoMR9X-1" parent="2QjYasxwJIHFQyAoMR9X-0" />
        <mxCell id="2QjYasxwJIHFQyAoMR9X-2" value="" style="ellipse;whiteSpace=wrap;html=1;aspect=fixed;gradientColor=none;gradientDirection=radial;fillColor=#FFF2CC;strokeColor=#E3D7B6;" vertex="1" parent="2QjYasxwJIHFQyAoMR9X-1">
          <mxGeometry x="320" y="480" width="80" height="80" as="geometry" />
        </mxCell>
      </root>
    </mxGraphModel>
  </diagram>
</mxfile>
